<svg width="39" height="39" viewBox="0 0 39 39" fill="none" xmlns="http://www.w3.org/2000/svg">
<path d="M19.5 3.25C15.2072 3.30475 11.1057 5.03437 8.07005 8.07005C5.03437 11.1057 3.30475 15.2073 3.25 19.5C3.27007 22.0007 3.86705 24.4631 4.99446 26.6954C6.12187 28.9277 7.74928 30.8696 9.75 32.37V32.5H9.9125C12.6639 34.6084 16.0336 35.7511 19.5 35.7511C22.9664 35.7511 26.3361 34.6084 29.0875 32.5H29.25V32.37C31.2507 30.8696 32.8781 28.9277 34.0055 26.6954C35.133 24.4631 35.7299 22.0007 35.75 19.5C35.6953 15.2073 33.9656 11.1057 30.93 8.07005C27.8943 5.03437 23.7928 3.30475 19.5 3.25ZM13.1137 30.7613C13.351 29.6749 13.9525 28.7022 14.8185 28.0047C15.6845 27.3071 16.763 26.9266 17.875 26.9263H21.125C22.237 26.9266 23.3155 27.3071 24.1815 28.0047C25.0475 28.7022 25.649 29.6749 25.8862 30.7613C23.9507 31.9001 21.7458 32.5006 19.5 32.5006C17.2542 32.5006 15.0493 31.9001 13.1137 30.7613ZM28.6163 28.665C27.9981 27.1878 26.9573 25.9262 25.6245 25.0386C24.2917 24.151 22.7263 23.6771 21.125 23.6763H17.875C16.2737 23.6771 14.7083 24.151 13.3755 25.0386C12.0427 25.9262 11.0019 27.1878 10.3837 28.665C9.16608 27.4674 8.19634 26.0415 7.52995 24.469C6.86355 22.8964 6.51357 21.2079 6.5 19.5C6.54215 16.0653 7.92532 12.7831 10.3542 10.3542C12.7831 7.92532 16.0653 6.54215 19.5 6.5C22.9347 6.54215 26.2169 7.92532 28.6458 10.3542C31.0747 12.7831 32.4579 16.0653 32.5 19.5C32.4864 21.2079 32.1364 22.8964 31.4701 24.469C30.8037 26.0415 29.8339 27.4674 28.6163 28.665Z" fill="#F9F9F9"/>
<path d="M19.4998 9.74977C18.6407 9.72976 17.7865 9.88421 16.9888 10.2038C16.1912 10.5234 15.4666 11.0014 14.859 11.609C14.2514 12.2166 13.7734 12.9412 13.4538 13.7388C13.1342 14.5365 12.9798 15.3907 12.9998 16.2498C12.9798 17.1088 13.1342 17.963 13.4538 18.7607C13.7734 19.5584 14.2514 20.2829 14.859 20.8905C15.4666 21.4981 16.1912 21.9762 16.9888 22.2958C17.7865 22.6153 18.6407 22.7698 19.4998 22.7498C20.3588 22.7698 21.213 22.6153 22.0107 22.2958C22.8084 21.9762 23.5329 21.4981 24.1405 20.8905C24.7481 20.2829 25.2262 19.5584 25.5458 18.7607C25.8653 17.963 26.0198 17.1088 25.9998 16.2498C26.0198 15.3907 25.8653 14.5365 25.5458 13.7388C25.2262 12.9412 24.7481 12.2166 24.1405 11.609C23.5329 11.0014 22.8084 10.5234 22.0107 10.2038C21.213 9.88421 20.3588 9.72976 19.4998 9.74977ZM19.4998 19.4998C19.0674 19.5207 18.6355 19.4509 18.2317 19.295C17.828 19.139 17.4613 18.9004 17.1552 18.5943C16.8492 18.2883 16.6105 17.9216 16.4546 17.5178C16.2986 17.114 16.2289 16.6821 16.2498 16.2498C16.2289 15.8174 16.2986 15.3855 16.4546 14.9817C16.6105 14.578 16.8492 14.2113 17.1552 13.9052C17.4613 13.5992 17.828 13.3605 18.2317 13.2046C18.6355 13.0486 19.0674 12.9789 19.4998 12.9998C19.9321 12.9789 20.364 13.0486 20.7678 13.2046C21.1716 13.3605 21.5383 13.5992 21.8443 13.9052C22.1504 14.2113 22.389 14.578 22.545 14.9817C22.7009 15.3855 22.7707 15.8174 22.7498 16.2498C22.7707 16.6821 22.7009 17.114 22.545 17.5178C22.389 17.9216 22.1504 18.2883 21.8443 18.5943C21.5383 18.9004 21.1716 19.139 20.7678 19.295C20.364 19.4509 19.9321 19.5207 19.4998 19.4998Z" fill="#F9F9F9"/>
</svg>
