<svg width="58" height="52" viewBox="0 0 58 52" fill="none" xmlns="http://www.w3.org/2000/svg">
<path d="M53.1788 30.6027L57.9389 9.47771C58.2826 7.95245 57.1331 6.5 55.5823 6.5H16.0314L15.1084 1.94898C14.8784 0.814633 13.8888 0 12.7408 0H2.41667C1.08196 0 0 1.09129 0 2.4375V4.0625C0 5.40871 1.08196 6.5 2.41667 6.5H9.4535L16.5271 41.3801C14.8348 42.3617 13.6944 44.2022 13.6944 46.3125C13.6944 49.4536 16.2191 52 19.3333 52C22.4476 52 24.9722 49.4536 24.9722 46.3125C24.9722 44.7206 24.323 43.2824 23.2781 42.25H44.3884C43.3436 43.2824 42.6945 44.7206 42.6945 46.3125C42.6945 49.4536 45.2191 52 48.3333 52C51.4476 52 53.9722 49.4536 53.9722 46.3125C53.9722 44.0607 52.6745 42.1147 50.7924 41.1932L51.3479 38.7277C51.6916 37.2024 50.5422 35.75 48.9914 35.75H21.9632L21.3041 32.5H50.8222C51.9506 32.5 52.9287 31.7125 53.1788 30.6027Z" fill="#F9F9F9"/>
</svg>
