<svg width="24" height="37" viewBox="0 0 24 37" fill="none" xmlns="http://www.w3.org/2000/svg">
<path d="M3.20039 1.84375C3.20039 1.50394 3.06606 1.17805 2.82695 0.937769C2.58784 0.697488 2.26354 0.5625 1.92539 0.5625C1.58724 0.5625 1.26294 0.697488 1.02383 0.937769C0.784721 1.17805 0.650391 1.50394 0.650391 1.84375V9.53125C0.650091 11.0081 1.15756 12.4397 2.08693 13.5837C3.01629 14.7278 4.31045 15.514 5.75039 15.8094V35.1562C5.75039 35.4961 5.88472 35.8219 6.12383 36.0622C6.36294 36.3025 6.68724 36.4375 7.02539 36.4375C7.36354 36.4375 7.68784 36.3025 7.92695 36.0622C8.16606 35.8219 8.30039 35.4961 8.30039 35.1562V15.8094C9.74033 15.514 11.0345 14.7278 11.9639 13.5837C12.8932 12.4397 13.4007 11.0081 13.4004 9.53125V1.84375C13.4004 1.50394 13.2661 1.17805 13.027 0.937769C12.7878 0.697488 12.4635 0.5625 12.1254 0.5625C11.7872 0.5625 11.4629 0.697488 11.2238 0.937769C10.9847 1.17805 10.8504 1.50394 10.8504 1.84375V9.53125C10.8508 10.3265 10.6058 11.1022 10.1491 11.7516C9.69236 12.401 9.04646 12.8921 8.30039 13.1572V1.84375C8.30039 1.50394 8.16606 1.17805 7.92695 0.937769C7.68784 0.697488 7.36354 0.5625 7.02539 0.5625C6.68724 0.5625 6.36294 0.697488 6.12383 0.937769C5.88472 1.17805 5.75039 1.50394 5.75039 1.84375V13.1572C5.00432 12.8921 4.35842 12.401 3.90171 11.7516C3.44501 11.1022 3.19998 10.3265 3.20039 9.53125V1.84375ZM21.0504 35.1562V18.5H17.2254C16.8872 18.5 16.5629 18.365 16.3238 18.1247C16.0847 17.8844 15.9504 17.5586 15.9504 17.2188V6.96875C15.9504 5.26981 16.7817 3.68106 17.9164 2.53819C19.0537 1.39788 20.6347 0.5625 22.3254 0.5625C22.6635 0.5625 22.9878 0.697488 23.227 0.937769C23.4661 1.17805 23.6004 1.50394 23.6004 1.84375V35.1562C23.6004 35.4961 23.4661 35.8219 23.227 36.0622C22.9878 36.3025 22.6635 36.4375 22.3254 36.4375C21.9872 36.4375 21.6629 36.3025 21.4238 36.0622C21.1847 35.8219 21.0504 35.4961 21.0504 35.1562Z" fill="#6ACED9"/>
</svg>
