<svg width="38" height="52" viewBox="0 0 38 52" fill="none" xmlns="http://www.w3.org/2000/svg">
<path d="M6.08268 0.166992H31.916C33.2863 0.166992 34.6005 0.711336 35.5694 1.68027C36.5383 2.64921 37.0827 3.96337 37.0827 5.33366V18.2503H0.916016V5.33366C0.916016 3.96337 1.46036 2.64921 2.4293 1.68027C3.39824 0.711336 4.7124 0.166992 6.08268 0.166992ZM37.0827 44.0837C37.0827 45.4539 36.5383 46.7681 35.5694 47.737C34.6005 48.706 33.2863 49.2503 31.916 49.2503V51.8337H26.7494V49.2503H11.2494V51.8337H6.08268V49.2503C4.7124 49.2503 3.39824 48.706 2.4293 47.737C1.46036 46.7681 0.916016 45.4539 0.916016 44.0837V20.8337H37.0827V44.0837ZM8.66602 7.91699V13.0837H13.8327V7.91699H8.66602ZM8.66602 26.0003V33.7503H13.8327V26.0003H8.66602Z" fill="#F9F9F9"/>
</svg>
