<svg width="44" height="44" viewBox="0 0 44 44" fill="none" xmlns="http://www.w3.org/2000/svg">
<path d="M29.0768 8.04866V35.5487C29.0768 38.6103 31.1668 40.3337 33.4585 40.3337C35.5485 40.3337 37.8402 38.8853 37.8402 35.5487V8.25033C37.8402 5.42699 35.7502 3.66699 33.4585 3.66699C31.1668 3.66699 29.0768 5.61033 29.0768 8.04866ZM17.6185 22.0003V35.5487C17.6185 38.6287 19.7452 40.3337 22.0002 40.3337C24.0902 40.3337 26.3818 38.8853 26.3818 35.5487V22.202C26.3818 19.3787 24.2918 17.6187 22.0002 17.6187C19.7085 17.6187 17.6185 19.562 17.6185 22.0003ZM10.5418 31.5887C12.9618 31.5887 14.9235 33.5503 14.9235 35.952C14.9235 37.1141 14.4619 38.2286 13.6401 39.0503C12.8184 39.872 11.7039 40.3337 10.5418 40.3337C9.37973 40.3337 8.26524 39.872 7.44352 39.0503C6.62179 38.2286 6.16016 37.1141 6.16016 35.952C6.16016 33.5503 8.12182 31.5887 10.5418 31.5887Z" fill="#F9F9F9"/>
</svg>
