<svg width="52" height="52" viewBox="0 0 52 52" fill="none" xmlns="http://www.w3.org/2000/svg">
<path d="M22.0879 32.4988V51.9913H14.3018V32.4988H22.0879ZM39.6618 28.5992H30.5603C30.0432 28.5992 29.5473 28.8047 29.1816 29.1703C28.816 29.536 28.6105 30.0319 28.6105 30.549V39.6531C28.6105 40.7294 29.4814 41.6029 30.5603 41.6029H39.6618C40.179 41.6029 40.6749 41.3975 41.0405 41.0318C41.4062 40.6662 41.6116 40.1703 41.6116 39.6531V30.549C41.6116 30.0319 41.4062 29.536 41.0405 29.1703C40.6749 28.8047 40.179 28.5992 39.6618 28.5992ZM37.7121 32.4988V37.7034H32.5075V32.4988H37.7095H37.7121ZM16.0306 13.0037H3.90565V16.0323C3.90565 19.1 6.18818 21.6399 9.14924 22.0402L9.55479 22.0818L9.97074 22.0948C13.1814 22.0948 15.8071 19.6017 16.0202 16.4457L16.0358 16.0297V13.0063L16.0306 13.0037ZM32.0577 13.0037H19.9328V16.0323C19.9328 19.1 22.2153 21.6399 25.1764 22.0402L25.5819 22.0818L25.9979 22.0948C29.2085 22.0948 31.8342 19.6017 32.0473 16.4457L32.0629 16.0297V13.0063L32.0577 13.0037ZM48.0901 13.0037H35.9625L35.9651 16.0323C35.9651 19.1 38.2476 21.6399 41.2061 22.0402L41.6142 22.0818L42.0302 22.0948C45.2382 22.0948 47.8665 19.6017 48.0797 16.4457L48.0927 16.0297V13.0063L48.0901 13.0037ZM18.36 3.89954H11.2498L6.42476 9.10413H16.7637L18.36 3.89954ZM29.5594 3.89954H22.4415L20.8401 9.10413H31.1608L29.5594 3.89954ZM40.7485 3.89954H33.6436L35.2424 9.10413H45.5788L40.7485 3.89954ZM0.528649 9.72806L8.97246 0.623928C9.27766 0.294522 9.68721 0.0805627 10.1319 0.0181987L10.4023 9.04787e-07H41.5986C42.0486 -0.000432418 42.4849 0.154792 42.8335 0.439349L43.0285 0.621328L51.5373 9.79825L51.6152 9.89704C51.8804 10.2506 52 10.651 52 11.0409L51.9948 16.0323C51.9948 18.6164 51.0121 20.9717 49.3951 22.7395V50.0441C49.3951 50.5153 49.2245 50.9705 48.9148 51.3256C48.6051 51.6807 48.1773 51.9116 47.7105 51.9757L47.4453 51.9939L25.9901 51.9913V30.549C25.9901 30.0319 25.7846 29.536 25.419 29.1703C25.0533 28.8047 24.5574 28.5992 24.0403 28.5992H12.3521C11.8349 28.5992 11.339 28.8047 10.9734 29.1703C10.6077 29.536 10.4023 30.0319 10.4023 30.549V51.9913L4.55818 51.9939C4.08657 51.9945 3.63072 51.8242 3.27509 51.5144C2.91945 51.2047 2.68814 50.7765 2.624 50.3093L2.60841 50.0441L2.60321 22.7421C1.04703 21.0396 0.132414 18.8482 0.0165097 16.5445L0.00351089 16.0323V11.1527C-0.0190782 10.7823 0.0677096 10.4135 0.253081 10.092L0.383066 9.89444L0.526049 9.72546L0.528649 9.72806Z" fill="#F9F9F9"/>
</svg>
