<svg width="52" height="52" viewBox="0 0 52 52" fill="none" xmlns="http://www.w3.org/2000/svg">
<path d="M35.6924 11.717L40.2814 16.3038L35.6924 11.717ZM38.6434 7.67612L26.2349 20.0846C25.5937 20.7249 25.1565 21.5406 24.9782 22.429L23.832 28.1663L29.5694 27.018C30.4577 26.8403 31.2724 26.4048 31.9137 25.7635L44.3222 13.355C44.6951 12.9821 44.9909 12.5394 45.1927 12.0522C45.3945 11.565 45.4983 11.0429 45.4983 10.5155C45.4983 9.98821 45.3945 9.46605 45.1927 8.97886C44.9909 8.49167 44.6951 8.049 44.3222 7.67612C43.9493 7.30325 43.5067 7.00746 43.0195 6.80566C42.5323 6.60387 42.0101 6.5 41.4828 6.5C40.9555 6.5 40.4333 6.60387 39.9461 6.80566C39.4589 7.00746 39.0162 7.30325 38.6434 7.67612V7.67612Z" stroke="#F9F9F9" stroke-width="2" stroke-linecap="round" stroke-linejoin="round"/>
<path d="M41.166 32.4997V38.9997C41.166 40.1489 40.7095 41.2511 39.8968 42.0638C39.0842 42.8765 37.982 43.333 36.8327 43.333H12.9993C11.8501 43.333 10.7479 42.8765 9.93522 42.0638C9.12256 41.2511 8.66602 40.1489 8.66602 38.9997V15.1663C8.66602 14.0171 9.12256 12.9149 9.93522 12.1022C10.7479 11.2896 11.8501 10.833 12.9993 10.833H19.4993" stroke="#F9F9F9" stroke-width="2" stroke-linecap="round" stroke-linejoin="round"/>
</svg>
