<svg width="44" height="44" viewBox="0 0 44 44" fill="none" xmlns="http://www.w3.org/2000/svg">
<g filter="url(#filter0_d_478_188)">
<path d="M32.8525 20.9945C32.5981 20.7032 32.4578 20.3287 32.4578 19.9409C32.4578 19.5532 32.5981 19.1787 32.8525 18.8874L34.8833 16.5887C35.1071 16.3375 35.2461 16.0215 35.2803 15.686C35.3145 15.3504 35.2422 15.0126 35.0737 14.721L31.9005 9.19771C31.7337 8.90642 31.4799 8.67552 31.175 8.53793C30.8702 8.40035 30.5299 8.36309 30.2028 8.43148L27.22 9.03808C26.8405 9.11699 26.4453 9.05339 26.1092 8.8593C25.7731 8.6652 25.5192 8.35403 25.3954 7.98451L24.4276 5.06325C24.3211 4.74619 24.1184 4.4708 23.8479 4.27602C23.5774 4.08123 23.2529 3.97689 22.9203 3.97776H16.5739C16.2279 3.95959 15.8855 4.05586 15.599 4.25187C15.3125 4.44788 15.0977 4.73285 14.9873 5.06325L14.0988 7.98451C13.975 8.35403 13.7211 8.6652 13.385 8.8593C13.0488 9.05339 12.6537 9.11699 12.2742 9.03808L9.21203 8.43148C8.90193 8.38739 8.58579 8.43663 8.30345 8.57298C8.02111 8.70933 7.7852 8.92671 7.62542 9.19771L4.45221 14.721C4.27952 15.0093 4.20188 15.3453 4.23037 15.6807C4.25887 16.0162 4.39205 16.334 4.61087 16.5887L6.62586 18.8874C6.88022 19.1787 7.0205 19.5532 7.0205 19.9409C7.0205 20.3287 6.88022 20.7032 6.62586 20.9945L4.61087 23.2932C4.39205 23.5479 4.25887 23.8657 4.23037 24.2011C4.20188 24.5366 4.27952 24.8725 4.45221 25.1609L7.62542 30.6841C7.79217 30.9754 8.04606 31.2063 8.3509 31.3439C8.65574 31.4815 8.99597 31.5188 9.32309 31.4504L12.3059 30.8438C12.6855 30.7649 13.0806 30.8285 13.4167 31.0226C13.7528 31.2167 14.0068 31.5278 14.1305 31.8973L15.0983 34.8186C15.2087 35.149 15.4236 35.434 15.7101 35.63C15.9966 35.826 16.339 35.9223 16.6849 35.9041H23.0314C23.364 35.905 23.6885 35.8006 23.9589 35.6058C24.2294 35.4111 24.4322 35.1357 24.5386 34.8186L25.5065 31.8973C25.6302 31.5278 25.8841 31.2167 26.2203 31.0226C26.5564 30.8285 26.9515 30.7649 27.3311 30.8438L30.3139 31.4504C30.641 31.5188 30.9812 31.4815 31.2861 31.3439C31.5909 31.2063 31.8448 30.9754 32.0116 30.6841L35.1848 25.1609C35.3532 24.8693 35.4255 24.5314 35.3913 24.1959C35.3571 23.8604 35.2182 23.5443 34.9944 23.2932L32.8525 20.9945ZM30.4884 23.1336L31.7577 24.5703L29.7268 28.1141L27.8546 27.731C26.7119 27.4959 25.5232 27.6912 24.5142 28.2798C23.5052 28.8683 22.746 29.8091 22.3809 30.9236L21.7779 32.7115H17.7162L17.1451 30.8917C16.7799 29.7772 16.0208 28.8364 15.0117 28.2479C14.0027 27.6593 12.814 27.464 11.6713 27.699L9.79907 28.0821L7.73648 24.5543L9.00577 23.1176C9.78631 22.2396 10.2178 21.1029 10.2178 19.925C10.2178 18.747 9.78631 17.6103 9.00577 16.7323L7.73648 15.2956L9.76734 11.7837L11.6395 12.1669C12.7822 12.4019 13.9709 12.2066 14.98 11.618C15.989 11.0295 16.7482 10.0887 17.1133 8.97423L17.7162 7.17039H21.7779L22.3809 8.99019C22.746 10.1047 23.5052 11.0455 24.5142 11.634C25.5232 12.2225 26.7119 12.4178 27.8546 12.1828L29.7268 11.7997L31.7577 15.3435L30.4884 16.7802C29.7166 17.6562 29.2905 18.7863 29.2905 19.9569C29.2905 21.1275 29.7166 22.2576 30.4884 23.1336ZM19.7471 13.5557C18.4919 13.5557 17.2649 13.9302 16.2212 14.6318C15.1775 15.3334 14.3641 16.3306 13.8838 17.4974C13.4034 18.6641 13.2777 19.948 13.5226 21.1866C13.7675 22.4253 14.3719 23.563 15.2595 24.456C16.1471 25.349 17.2779 25.9571 18.509 26.2035C19.7401 26.4499 21.0161 26.3234 22.1758 25.8402C23.3354 25.3569 24.3266 24.5384 25.024 23.4884C25.7213 22.4383 26.0935 21.2038 26.0935 19.9409C26.0935 18.2475 25.4249 16.6233 24.2347 15.4259C23.0445 14.2284 21.4303 13.5557 19.7471 13.5557ZM19.7471 23.1336C19.1195 23.1336 18.506 22.9463 17.9841 22.5955C17.4623 22.2447 17.0556 21.7461 16.8154 21.1627C16.5753 20.5793 16.5124 19.9374 16.6349 19.3181C16.7573 18.6988 17.0595 18.1299 17.5033 17.6834C17.9471 17.2369 18.5125 16.9328 19.128 16.8096C19.7436 16.6865 20.3816 16.7497 20.9614 16.9913C21.5413 17.233 22.0368 17.6422 22.3855 18.1672C22.7342 18.6922 22.9203 19.3095 22.9203 19.9409C22.9203 20.7877 22.586 21.5997 21.9909 22.1985C21.3958 22.7972 20.5887 23.1336 19.7471 23.1336Z" fill="#F9F9F9"/>
</g>
<defs>
<filter id="filter0_d_478_188" x="-3" y="0.782227" width="51" height="50.5742" filterUnits="userSpaceOnUse" color-interpolation-filters="sRGB">
<feFlood flood-opacity="0" result="BackgroundImageFix"/>
<feColorMatrix in="SourceAlpha" type="matrix" values="0 0 0 0 0 0 0 0 0 0 0 0 0 0 0 0 0 0 127 0" result="hardAlpha"/>
<feOffset dy="4"/>
<feGaussianBlur stdDeviation="2"/>
<feComposite in2="hardAlpha" operator="out"/>
<feColorMatrix type="matrix" values="0 0 0 0 0 0 0 0 0 0 0 0 0 0 0 0 0 0 0.25 0"/>
<feBlend mode="normal" in2="BackgroundImageFix" result="effect1_dropShadow_478_188"/>
<feBlend mode="normal" in="SourceGraphic" in2="effect1_dropShadow_478_188" result="shape"/>
</filter>
</defs>
</svg>
