<svg width="20" height="22" viewBox="0 0 20 22" fill="none" xmlns="http://www.w3.org/2000/svg">
<path d="M1 2.99121L3.29342 17.0087C3.41222 17.7349 3.72989 18.4141 4.21118 18.9708C4.69248 19.5275 5.31858 19.94 6.02004 20.1625L6.34667 20.2661C8.69942 21.013 11.2257 21.013 13.5785 20.2661L13.9051 20.1625C14.6064 19.9401 15.2324 19.5277 15.7137 18.9712C16.195 18.4147 16.5127 17.7357 16.6317 17.0097L18.9251 2.99121" stroke="#545454" stroke-linecap="round" stroke-linejoin="round"/>
<path d="M9.96257 4.98337C14.9125 4.98337 18.9251 4.09166 18.9251 2.99168C18.9251 1.89171 14.9125 1 9.96257 1C5.01268 1 1 1.89171 1 2.99168C1 4.09166 5.01268 4.98337 9.96257 4.98337Z" stroke="#545454" stroke-linecap="round" stroke-linejoin="round"/>
</svg>
