<svg width="34" height="34" viewBox="0 0 34 34" fill="none" xmlns="http://www.w3.org/2000/svg">
<path d="M17 4.83744L3.77778 15.4152V30.2222H13.2222V22.6667H20.7778V30.2222H30.2222V16.3238C30.2223 16.0405 30.1587 15.7608 30.0361 15.5055C29.9135 15.2501 29.735 15.0256 29.5139 14.8486L17 4.83744ZM17 0L31.8731 11.9C32.5363 12.4305 33.0718 13.1034 33.44 13.8688C33.8081 14.6342 33.9995 15.4726 34 16.3219V30.2222C34 31.2241 33.602 32.185 32.8935 32.8935C32.185 33.602 31.2241 34 30.2222 34H3.77778C2.77585 34 1.81496 33.602 1.10649 32.8935C0.398015 32.185 0 31.2241 0 30.2222V15.4152C7.06401e-05 14.849 0.127422 14.29 0.372637 13.7797C0.617851 13.2693 0.974657 12.8206 1.41667 12.4667L17 0Z" fill="#F9F9F9"/>
</svg>
